<?xml version="1.0" encoding="utf-8"?>
<!-- Generator: Adobe Illustrator 23.0.0, SVG Export Plug-In . SVG Version: 6.00 Build 0)  -->
<svg version="1.1" id="Layer_1" xmlns="http://www.w3.org/2000/svg" xmlns:xlink="http://www.w3.org/1999/xlink" x="0px" y="0px"
	 viewBox="0 0 8 8" style="enable-background:new 0 0 8 8;" xml:space="preserve">
<path d="M3.5,0c-0.5,0-1,0.4-1,1h-1c-0.6,0-1,0.5-1,1h7c0-0.5-0.4-1-1-1h-1c0-0.6-0.4-1-1-1H3.5z M1.5,3v4.8C1.5,7.9,1.6,8,1.7,8
	h4.6c0.1,0,0.2-0.1,0.2-0.2V3h-1v3.5C5.5,6.8,5.3,7,5,7S4.5,6.8,4.5,6.5V3h-1v3.5C3.5,6.8,3.3,7,3,7S2.5,6.8,2.5,6.5V3H1.5L1.5,3z"
	/>
</svg>
